<?xml version="1.0" encoding="utf-8"?>
<!-- Generator: Adobe Illustrator 27.2.0, SVG Export Plug-In . SVG Version: 6.00 Build 0)  -->
<svg version="1.1" id="Layer_1" xmlns="http://www.w3.org/2000/svg" xmlns:xlink="http://www.w3.org/1999/xlink" x="0px" y="0px"
	 viewBox="0 0 630.1 151.2" style="enable-background:new 0 0 630.1 151.2;" xml:space="preserve">
<style type="text/css">
	.st0{fill:#FFFFFF;}
</style>
<g>
	<g>
		<path class="st0" d="M257,15c-3.4-1.3-7.3-2.4-7.3-6.3c0-3.2,2.9-4.5,7.7-4.5c1.2,0,3.8,0.2,6,0.6c0.6,0.1,1-0.1,0.9-0.7l-0.2-1.5
			c-0.1-0.8-0.3-1.5-1.5-1.9c-1.1-0.5-3.3-0.7-5.2-0.7c-7.5,0-12.2,3.5-12.2,9c0,5.2,3.8,7.8,9.4,9.8c4,1.5,7.7,2.6,7.7,6.8
			c0,3.3-2.4,5.1-7.3,5.1c-4.1,0-7.4-1.2-9-1.8c-0.6-0.2-1.1,0-1,0.7l0.4,2.2c0.1,0.5,0.3,1,1,1.4c1.3,0.7,4.9,1.5,8.3,1.5
			c6.4,0,12.3-2.5,12.3-9.5C266.9,19.9,263.5,17.4,257,15L257,15z"/>
		<path class="st0" d="M230.3,30.2h-14.9V19h12c0.7,0,1-0.3,1-0.9v-2.3c0-0.7-0.3-0.9-1-0.9h-12V4.7h14.5c0.7,0,0.9-0.4,0.8-1
			L230.3,2c-0.3-1.1-0.7-1.5-1.6-1.5h-16.9c-0.6,0-1,0.4-1,1v31.8c0,0.6,0.4,1,1,1h17.8c0.6,0,1-0.3,1.1-1l0.5-2.1
			C231.4,30.6,231.1,30.2,230.3,30.2L230.3,30.2z"/>
		<path class="st0" d="M296.8,4.2c1.7,0,4.3,0.3,6.5,0.6c0.7,0.1,0.9-0.3,0.8-0.9l-0.2-1.2c-0.2-1.1-0.8-1.8-1.8-2.1
			c-1.1-0.4-3.2-0.6-5.2-0.6c-8.8,0-16.2,5.5-16.2,17.8c0,10.5,5.2,17.1,16.2,17.1c0.4,0,3.5,0,5.4-0.7c1-0.4,1.2-0.8,1.4-1.6
			L304,31c0.2-0.7-0.2-1-1-0.9c-2,0.3-3.6,0.4-4.4,0.4c-7.1,0-13.1-1.9-13.1-12.5C285.4,8.7,289.6,4.2,296.8,4.2L296.8,4.2z"/>
		<path class="st0" d="M419.2,33.4l-11.6-32c-0.2-0.6-0.6-0.9-1.4-0.9h-3.1c-0.7,0-1.1,0.4-1.4,0.9l-11.6,32
			c-0.3,0.6-0.1,0.9,0.6,0.9h2.5c0.8,0,1.2-0.3,1.5-0.9l2.8-8h14.2l2.8,8c0.2,0.6,0.7,0.9,1.4,0.9h2.5
			C419.2,34.3,419.4,34,419.2,33.4L419.2,33.4z M399,21.4l5.6-16.1l5.8,16.1H399z"/>
		<path class="st0" d="M331,0c-10.6,0-14.1,8.1-14.1,17.8c0,8.9,2.9,17.1,13.8,17.1s14.4-8.3,14.4-17.5S341.6,0,331,0z M331,30.8
			c-7,0-9.5-5.5-9.5-13.4S324,3.9,331,3.9s9.5,5.6,9.5,13.5S338,30.8,331,30.8z"/>
		<path class="st0" d="M378.2,30.2H365V1.5c0-0.6-0.3-0.9-1-0.9h-2.5c-0.7,0-1,0.4-1,0.9v31.9c0,0.7,0.3,1,1,1h16.2
			c0.7,0,0.9-0.4,1-1l0.5-2.1C379.4,30.6,379,30.2,378.2,30.2L378.2,30.2z"/>
	</g>
	<path class="st0" d="M594.3,110.2c0,13.7,9.8,18.4,19.5,18.4c3.3,0,5.9-0.3,8.9-1.5c1.5-0.6,2.1-1.7,2.6-3c0.9-2.7,1.1-5.3,1.1-7.6
		c0-1.5-0.8-2.3-2.3-2.3h-3.6c-6.3,0-9.5-2.1-9.5-9.5l0.2-31.2h15.7c1.4,0,2-0.6,2.3-2.1c0.6-3.3,1.1-6.2,1.1-9.8
		c0-1.5-0.6-2.4-2.1-2.4h-16.9V45.7c0-1.2-0.5-1.5-1.5-1.5c-2.9,0-5.6,0.3-8,1.1c-1.8,0.6-3.5,1.1-5.4,2.4c-1.2,0.8-1.7,1.8-1.7,3.5
		L594.3,110.2L594.3,110.2z M549.7,109.9c0-4.8,3.6-7.8,10.3-8.4l8.8-0.9v13c-3,1.8-6.8,3-11.3,3S549.7,114.1,549.7,109.9
		L549.7,109.9z M533.2,113.2c0,9.1,7.5,15.4,17.4,15.4c7.2,0,14.9-3.5,18.9-10.4v8.9c0,1.2,0.5,1.5,1.5,1.5c1.7,0,4.2-0.3,6.8-1.1
		c2-0.6,2.9-1.1,5.1-2.4c1.2-0.8,1.7-1.8,1.7-3.5v-40c0-15.4-10.1-24-29.1-24c-6.3,0-10.7,1.1-13.3,2.1c-2.6,1.1-4.5,2.9-5.6,5.4
		c-1.1,2.6-1.7,4.8-1.8,7.1c-0.2,1.7,1.1,2,3.3,1.5c6-1.2,9.2-1.7,13.6-1.7c11.9,0,17,4.7,17,12.8v3l-14.8,4.4
		C540,96.4,533.2,103.2,533.2,113.2L533.2,113.2z M473.3,124.5c0,1.4,0.6,1.8,2.3,2.1c1.5,0.3,4.2,0.4,6,0.4s4.4-0.2,6-0.4
		c1.7-0.3,2.3-0.8,2.3-2.1V72.9c2.7-2.1,6-3.3,9.8-3.3c6.6,0,9.1,4.2,9.1,9.5v45.4c0,1.4,0.6,1.8,2.3,2.1c1.5,0.3,4.2,0.4,6,0.4
		s4.4-0.2,6-0.4c1.7-0.3,2.3-0.8,2.3-2.1V75.3c0-10.1-5.1-17.7-17.7-17.7c-7.7,0-15.2,5-18.7,10.7v-9.2c0-1.2-0.5-1.5-1.5-1.5
		c-2,0-4.2,0.3-6.8,1.1c-2.3,0.6-4.2,1.5-5.7,2.4c-1.2,0.8-1.7,1.5-1.7,3.5C473.3,64.6,473.3,124.5,473.3,124.5z M427.1,78.5
		c0-8.8,5.9-12.1,14-12.1c2,0,5,0.4,7.4,1.1c0.6,3.2,0.9,6.5,0.9,10.3c0,7.6-4.1,12.1-11.2,12.1S427.1,85.6,427.1,78.5L427.1,78.5z
		 M419.6,129.6c0-2.7,2-5.4,5.7-6.8c2.1,0.6,4.4,0.8,6.6,0.8h10.1c5.4,0,8.1,1.2,8.1,5.6c0,5.1-5.7,9.7-15.1,9.7
		C424.6,138.8,419.6,134.1,419.6,129.6L419.6,129.6z M406,135.2c0,9.8,10,16,26.3,16c18,0,33-12.5,33-27.5
		c0-11.2-6.2-15.7-20.4-15.7h-9.7c-3.8,0-5.4-1.7-5.4-3.5c0-2,1.7-3.9,6.9-3.9c16.1,0,27.5-8,27.5-23.4s-2.1-23.1-4.7-32.6
		c-0.5-1.7-1.2-2-2.7-1.7c-3.5,0.6-7.9,2.6-10.7,4.8c-1.2,0.9-1.8,1.5-1.5,2.9c0.9,4.1,1.8,7.4,2.6,10.6c-2.9-2.4-6.8-3.6-11.9-3.6
		c-12.7,0-24,8.3-24,21.7c0,10.1,5.7,17.2,15.4,19.9c-7.4,2.4-12.1,6.8-12.1,12.4c0,4.2,2,7.1,4.8,8.9
		C410.2,123.7,406,128.7,406,135.2z M367.2,109.8c0-4.4,2.9-7.7,10.3-8.4l8.8-0.9v13c-3,1.8-6.6,3-10.7,3
		C370.5,116.5,367.2,114.1,367.2,109.8L367.2,109.8z M350.8,113.2c0,9.1,7.2,15.4,17.4,15.4c7.2,0,14.9-3.5,18.9-10.4v8.9
		c0,1.2,0.5,1.5,1.5,1.5c1.7,0,4.2-0.3,6.8-1.1c2-0.6,2.9-1.1,5.1-2.4c1.2-0.8,1.7-1.8,1.7-3.5v-40c0-15.4-10.1-24-29.1-24
		c-6.3,0-10.7,1.1-13.3,2.1c-2.6,1.1-4.5,2.9-5.6,5.4c-1.1,2.6-1.7,4.8-1.8,7.1c-0.1,1.7,1.1,2,3.3,1.5c6-1.2,9.2-1.7,13.6-1.7
		c11.9,0,17,4.7,17,12.8v3l-14.8,4.4C357.5,96.4,350.8,103.2,350.8,113.2L350.8,113.2z M306.2,114.2v-41c3-2.3,6-3.6,9.7-3.6
		c7.4,0,12.5,6.8,12.5,22.9c0,18.7-5.1,24.2-12.7,24.2C312.6,116.6,309.3,115.7,306.2,114.2L306.2,114.2z M289.6,148.2
		c0,1.2,0.5,1.5,1.5,1.5c1.5,0,12.4-1.5,13.4-2.1c1.2-0.8,1.7-1.5,1.7-3.5v-21.9c3.6,4.2,8.5,6.3,14.3,6.3
		c13.1,0,24.5-9.2,24.5-36.4c0-22.9-8.5-34.6-22.6-34.6c-7.1,0-12.4,4.1-16.1,9.7v-5.6c0-1.4-0.6-1.8-2.3-2.1
		c-1.5-0.3-4.2-0.5-6-0.5s-4.4,0.2-6,0.5s-2.3,0.8-2.3,2.1L289.6,148.2L289.6,148.2z M192.3,124.5c0,1.4,0.6,1.8,2.3,2.1
		c1.5,0.3,4.2,0.4,6,0.4s4.4-0.2,6-0.4c1.7-0.3,2.3-0.8,2.3-2.1V72.9c2.7-2.1,6-3.3,9.8-3.3c6.6,0,9.1,4.2,9.1,9.5v45.4
		c0,1.4,0.6,1.8,2.3,2.1c1.5,0.3,4.2,0.4,6,0.4s4.4-0.2,6-0.4c1.7-0.3,2.3-0.8,2.3-2.1V75.3l-0.1-2.3c2.9-2.3,6.2-3.5,10-3.5
		c6.6,0,9.1,4.2,9.1,9.5v45.4c0,1.4,0.6,1.8,2.3,2.1c1.5,0.3,4.2,0.4,6,0.4s4.4-0.2,6-0.4c2.4-0.4,2.3-1.2,2.3-2.1V75.3
		c0-10.1-5.1-17.7-17.7-17.7c-7.9,0-15.2,5-18.7,10.7c-2.1-6.5-7.2-10.7-16.8-10.7c-7.7,0-15.2,5-18.7,10.7v-9.2
		c0-1.2-0.4-1.5-1.5-1.5c-2,0-4.2,0.3-6.8,1.1c-2.3,0.6-4.2,1.5-5.7,2.4c-1.2,0.8-1.7,1.5-1.7,3.5L192.3,124.5L192.3,124.5z
		 M147.6,109.8c0-4.7,3.6-7.8,10.3-8.4l8.8-0.9v13c-3,1.8-6.8,3-11.3,3S147.6,114.1,147.6,109.8L147.6,109.8z M131.2,113.2
		c0,9.1,7.6,15.4,17.4,15.4c7.2,0,14.9-3.5,18.9-10.4v8.9c0,1.2,0.4,1.5,1.5,1.5c1.7,0,4.2-0.3,6.8-1.1c1.7-0.4,3.2-1.2,5.1-2.4
		c1.2-0.8,1.7-1.8,1.7-3.5v-40c0-15.4-10.1-24-29.1-24c-6.3,0-10.7,1.1-13.3,2.1c-2.6,1.1-4.5,2.9-5.6,5.4c-1.1,2.6-1.7,4.8-1.8,7.1
		c-0.1,1.7,1.1,2,3.3,1.5c6-1.2,9.2-1.7,13.6-1.7c11.9,0,17.1,4.7,17.1,12.8v3l-14.8,4.4C138,96.4,131.2,103.2,131.2,113.2
		L131.2,113.2z M69.1,124.5c0,1.4,0.6,1.8,2.3,2.1c1.5,0.3,4.2,0.4,6,0.4s4.4-0.2,6-0.4c1.7-0.3,2.3-0.8,2.3-2.1V72.1
		c3.3-1.5,7.1-2.1,11.5-2.1c5.7,0,9.1,3.2,9.1,9.5v45c0,1.4,0.6,1.8,2.3,2.1c1.5,0.3,4.2,0.4,6,0.4s4.4-0.2,6-0.4
		c1.7-0.3,2.3-0.8,2.3-2.1V76c0-10.4-5.4-18.4-18.7-18.4c-6.5,0-13.7,3-18.4,7.6V36.1c0-1.2-0.4-1.5-1.5-1.5
		c-1.5,0-12.4,1.5-13.4,2.1c-1.2,0.8-1.7,1.5-1.7,3.5L69.1,124.5L69.1,124.5z M0,86.5c0,27.5,16.6,42.1,39.4,42.1
		c6.5,0,12.8-1.1,16.9-3.2c1.5-0.8,2.4-1.7,2.9-3.3c0.8-2.7,1.5-7.1,1.5-8.6c0-1.7-1.1-2.3-2.6-1.8c-4.7,1.4-8.5,1.8-14.9,1.8
		c-15.5,0-26.3-7.7-26.3-27.6s11.8-31.1,28.7-31.1c4.7,0,8.8,0.3,13.6,0.8c1.7,0.2,2-0.5,2-2.6s-0.5-5.7-1.7-8s-3.6-3.6-7.5-4.5
		c-2-0.5-6.2-0.9-9.4-0.9C18.1,39.5,0,59.6,0,86.5z"/>
</g>
</svg>
