<svg width="60" height="87" viewBox="0 0 60 87" fill="none" xmlns="http://www.w3.org/2000/svg">
    <path d="M55.4822 57.4637V48.4068L51.792 49.8939L51.7811 49.8687L51.6932 49.7033C50.279 47.4229 47.9921 45.8364 45.4169 45.3529L36.5371 43.6794V42.9534C39.8579 40.9562 42.2896 37.549 43.0474 33.5209C45.5076 32.994 47.3629 30.7333 47.3629 28.0311V14.1879C47.3629 10.2762 44.8892 6.86481 41.3004 5.75478L40.6238 5.054C37.4762 1.79399 33.292 0 28.8413 0C19.6542 0 12.179 7.74078 12.179 17.2573V28.0311C12.179 30.7333 14.0343 32.994 16.4945 33.5209C17.2536 37.549 19.684 40.9576 23.0048 42.9534V43.6794L14.1263 45.3515C11.5538 45.835 9.26823 47.4187 7.85276 49.6977L7.77157 49.9023L4.05967 48.4068V57.4637C1.82144 57.4637 0 59.3502 0 61.6683V67.2745C0 69.5927 1.82144 71.4792 4.05967 71.4792V76.6425L29.7709 87L55.4822 76.6425V71.4792C57.7204 71.4792 59.5419 69.5927 59.5419 67.2745V61.6683C59.5419 59.3502 57.7204 57.4637 55.4822 57.4637ZM39.073 47.0067L44.9325 48.1097C46.6578 48.4349 48.1856 49.4664 49.2046 50.9352L36.1121 56.2079L39.073 47.0067ZM25.8263 44.2386C27.0753 44.6339 28.3988 44.8497 29.7709 44.8497C31.1431 44.8497 32.4666 44.6339 33.7156 44.2386L29.7709 47.3024L25.8263 44.2386ZM27.7113 49.2057L24.9494 52.0649L23.1577 46.4993L24.0197 46.3381L27.7113 49.2057ZM35.5221 46.3395L36.3841 46.5007L34.5925 52.0663L31.8305 49.2071L35.5221 46.3395ZM43.3032 30.4445V25.6176C44.1083 26.1039 44.6564 26.9981 44.6564 28.0311C44.6564 29.064 44.1083 29.9582 43.3032 30.4445ZM16.2387 30.4445C15.4335 29.9582 14.8855 29.064 14.8855 28.0311C14.8855 26.9981 15.4335 26.1039 16.2387 25.6176V30.4445ZM16.2387 21.0233V22.6239C15.7569 22.7542 15.305 22.9504 14.8855 23.2041V17.2573C14.8855 9.28809 21.1455 2.80311 28.8413 2.80311C32.568 2.80311 36.0743 4.30697 38.7103 7.0372L39.9039 8.27477L40.2679 8.36727C42.8526 9.03581 44.6564 11.4297 44.6564 14.1879V23.2041C44.2369 22.9504 43.7849 22.7528 43.3032 22.6239V21.0233H39.0121C35.3449 21.0233 31.84 19.2097 29.641 16.1725L28.5652 14.6841L25.8764 17.4704C23.6625 19.7619 20.7206 21.0233 17.5919 21.0233H16.2387ZM18.9451 30.8342V23.7619C22.2863 23.441 25.3865 21.9399 27.7898 19.4522L28.3162 18.9069C31.0294 22.0086 34.9375 23.8264 39.0121 23.8264H40.5967V30.8342C40.5967 37.0164 35.74 42.0466 29.7709 42.0466C23.8019 42.0466 18.9451 37.0164 18.9451 30.8342ZM14.6094 48.1097L20.4689 47.0067L23.4297 56.2079L10.3346 50.9338C11.3536 49.4636 12.884 48.4349 14.6094 48.1097ZM2.70645 67.2745V61.6683C2.70645 60.8947 3.31405 60.2668 4.05967 60.2668C6.29791 60.2668 8.11935 62.1533 8.11935 64.4714C8.11935 66.7896 6.29791 68.6761 4.05967 68.6761C3.31405 68.6761 2.70645 68.0482 2.70645 67.2745ZM28.4177 83.4457L6.76612 74.7266V70.8849C9.15186 69.8001 10.8258 67.3376 10.8258 64.4714C10.8258 61.6053 9.15186 59.1427 6.76612 58.0579V52.505L28.4177 61.2254V83.4457ZM24.4 56.6003L29.7709 51.0361L35.1419 56.5989L29.7709 58.7629L24.4 56.6003ZM52.7757 74.7252L31.1242 83.4443V61.2254L52.7757 52.505V58.0579C50.39 59.1427 48.7161 61.6053 48.7161 64.4714C48.7161 67.3376 50.39 69.8001 52.7757 70.8849V74.7252ZM56.8354 67.2745C56.8354 68.0482 56.2278 68.6761 55.4822 68.6761C53.244 68.6761 51.4225 66.7896 51.4225 64.4714C51.4225 62.1533 53.244 60.2668 55.4822 60.2668C56.2278 60.2668 56.8354 60.8947 56.8354 61.6683V67.2745Z" fill="#fdc300"/>
</svg>
